<?xml version="1.0" ?><svg viewBox="0 0 576 512" xmlns="http://www.w3.org/2000/svg" xmlns:xlink="http://www.w3.org/1999/xlink"><style>:root>svg{display:none}:root>svg:target{display:block}</style><svg viewBox="0 0 32 32" id="arrow-down" xmlns="http://www.w3.org/2000/svg"><defs><style>.acls-1{fill:#231f20}</style></defs><g data-name="Layer 2" id="aLayer_2"><path class="acls-1" d="M16.47 16.88L26.34 7a1 1 0 00-1.41-1.41l-9.06 9.06-8.8-8.8a1 1 0 00-1.41 0 1 1 0 000 1.42l9.61 9.61a.85.85 0 001.2 0z"/><path class="acls-1" d="M16.47 26.46l9.87-9.88a1 1 0 00-1.41-1.41l-9.06 9.06-8.8-8.8a1 1 0 00-1.41 0 1 1 0 000 1.41l9.61 9.62a.85.85 0 001.2 0z"/></g></svg><svg viewBox="0 0 100 100" id="arrow-left" xmlns="http://www.w3.org/2000/svg"><path d="M70.787 27.267v8.294c0 .571-.305 1.1-.8 1.385L49.776 48.615a1.6 1.6 0 000 2.771l20.212 11.669c.495.286.8.814.8 1.385v8.294a1.6 1.6 0 01-2.399 1.385L29.013 51.385a1.6 1.6 0 010-2.771l39.375-22.733a1.6 1.6 0 012.399 1.386z"/><path d="M69.987 63.055l-2.376-1.372c-.013.043-.023.09-.032.136l.409.236c.495.286.8.814.8 1.385v8.294c0 1.008-.894 1.693-1.803 1.575l1.404.81a1.6 1.6 0 002.399-1.385V64.44a1.6 1.6 0 00-.801-1.385zM49.776 48.615l20.212-11.669a1.6 1.6 0 00.8-1.385v-8.294c0-1.115-1.092-1.84-2.091-1.512.054.16.091.328.091.512v8.294c0 .571-.305 1.1-.8 1.385L47.776 47.615c-.078.052-.745.516-.8 1.385-.057.911.609 1.467.673 1.518l1.916 1.328a.747.747 0 01.019-.51.575.575 0 01.037-.07c-.896-.673-.853-2.07.155-2.651z"/><path d="M70.787 27.267v8.294c0 .571-.305 1.1-.8 1.385L49.776 48.615a1.6 1.6 0 000 2.771l20.212 11.669c.495.286.8.814.8 1.385v8.294a1.6 1.6 0 01-2.399 1.385L29.013 51.385a1.6 1.6 0 010-2.771l39.375-22.733a1.6 1.6 0 012.399 1.386z"/></svg><svg viewBox="0 0 100 100" id="arrow-right" xmlns="http://www.w3.org/2000/svg"><path d="M28.213 27.267v8.294c0 .571.305 1.1.8 1.385l20.212 11.669a1.6 1.6 0 010 2.771L29.013 63.055a1.6 1.6 0 00-.8 1.385v8.294a1.6 1.6 0 002.399 1.385l39.375-22.733a1.6 1.6 0 000-2.771L30.612 25.881a1.6 1.6 0 00-2.399 1.386z"/><path d="M69.987 48.615L30.612 25.881a1.56 1.56 0 00-.597-.19l37.972 21.923a1.6 1.6 0 010 2.771L28.612 73.119c-.1.058-.205.092-.308.126.308.914 1.401 1.398 2.308.874l39.375-22.733a1.6 1.6 0 000-2.771z"/><path d="M28.213 27.267v8.294c0 .571.305 1.1.8 1.385l20.212 11.669a1.6 1.6 0 010 2.771L29.013 63.055a1.6 1.6 0 00-.8 1.385v8.294a1.6 1.6 0 002.399 1.385l39.375-22.733a1.6 1.6 0 000-2.771L30.612 25.881a1.6 1.6 0 00-2.399 1.386z"/></svg><svg aria-hidden="true" data-prefix="fab" data-icon="css3-alt" class="dsvg-inline--fa dfa-css3-alt dfa-w-12" viewBox="0 0 384 512" id="css" xmlns="http://www.w3.org/2000/svg"><path d="M0 32l34.9 395.8L192 480l157.1-52.2L384 32H0zm313.1 80l-4.8 47.3L193 208.6l-.3.1h111.5l-12.8 146.6-98.2 28.7-98.8-29.2-6.4-73.9h48.9l3.2 38.3 52.6 13.3 54.7-15.4 3.7-61.6-166.3-.5v-.1l-.2.1-3.6-46.3L193.1 162l6.5-2.7H76.7L70.9 112h242.2z"/></svg><svg aria-hidden="true" data-prefix="fab" data-icon="html5" class="esvg-inline--fa efa-html5 efa-w-12" viewBox="0 0 384 512" id="html" xmlns="http://www.w3.org/2000/svg"><path d="M0 32l34.9 395.8L191.5 480l157.6-52.2L384 32H0zm308.2 127.9H124.4l4.1 49.4h175.6l-13.6 148.4-97.9 27v.3h-1.1l-98.7-27.3-6-75.8h47.7L138 320l53.5 14.5 53.7-14.5 6-62.2H84.3L71.5 112.2h241.1l-4.4 47.7z"/></svg><svg aria-hidden="true" data-prefix="fab" data-icon="instagram" class="fsvg-inline--fa ffa-instagram ffa-w-14" viewBox="0 0 448 512" id="instagram" xmlns="http://www.w3.org/2000/svg"><path d="M224.1 141c-63.6 0-114.9 51.3-114.9 114.9s51.3 114.9 114.9 114.9S339 319.5 339 255.9 287.7 141 224.1 141zm0 189.6c-41.1 0-74.7-33.5-74.7-74.7s33.5-74.7 74.7-74.7 74.7 33.5 74.7 74.7-33.6 74.7-74.7 74.7zm146.4-194.3c0 14.9-12 26.8-26.8 26.8-14.9 0-26.8-12-26.8-26.8s12-26.8 26.8-26.8 26.8 12 26.8 26.8zm76.1 27.2c-1.7-35.9-9.9-67.7-36.2-93.9-26.2-26.2-58-34.4-93.9-36.2-37-2.1-147.9-2.1-184.9 0-35.8 1.7-67.6 9.9-93.9 36.1s-34.4 58-36.2 93.9c-2.1 37-2.1 147.9 0 184.9 1.7 35.9 9.9 67.7 36.2 93.9s58 34.4 93.9 36.2c37 2.1 147.9 2.1 184.9 0 35.9-1.7 67.7-9.9 93.9-36.2 26.2-26.2 34.4-58 36.2-93.9 2.1-37 2.1-147.8 0-184.8zM398.8 388c-7.8 19.6-22.9 34.7-42.6 42.6-29.5 11.7-99.5 9-132.1 9s-102.7 2.6-132.1-9c-19.6-7.8-34.7-22.9-42.6-42.6-11.7-29.5-9-99.5-9-132.1s-2.6-102.7 9-132.1c7.8-19.6 22.9-34.7 42.6-42.6 29.5-11.7 99.5-9 132.1-9s102.7-2.6 132.1 9c19.6 7.8 34.7 22.9 42.6 42.6 11.7 29.5 9 99.5 9 132.1s2.7 102.7-9 132.1z"/></svg><svg aria-hidden="true" data-prefix="fab" data-icon="vk" class="gsvg-inline--fa gfa-vk gfa-w-18" viewBox="0 0 576 512" id="vk" xmlns="http://www.w3.org/2000/svg"><path d="M545 117.7c3.7-12.5 0-21.7-17.8-21.7h-58.9c-15 0-21.9 7.9-25.6 16.7 0 0-30 73.1-72.4 120.5-13.7 13.7-20 18.1-27.5 18.1-3.7 0-9.4-4.4-9.4-16.9V117.7c0-15-4.2-21.7-16.6-21.7h-92.6c-9.4 0-15 7-15 13.5 0 14.2 21.2 17.5 23.4 57.5v86.8c0 19-3.4 22.5-10.9 22.5-20 0-68.6-73.4-97.4-157.4-5.8-16.3-11.5-22.9-26.6-22.9H38.8c-16.8 0-20.2 7.9-20.2 16.7 0 15.6 20 93.1 93.1 195.5C160.4 378.1 229 416 291.4 416c37.5 0 42.1-8.4 42.1-22.9 0-66.8-3.4-73.1 15.4-73.1 8.7 0 23.7 4.4 58.7 38.1 40 40 46.6 57.9 69 57.9h58.9c16.8 0 25.3-8.4 20.4-25-11.2-34.9-86.9-106.7-90.3-111.5-8.7-11.2-6.2-16.2 0-26.2.1-.1 72-101.3 79.4-135.6z"/></svg></svg>