<?xml version="1.0" ?><!DOCTYPE svg PUBLIC "-//W3C//DTD SVG 1.1//EN" "http://www.w3.org/Graphics/SVG/1.1/DTD/svg11.dtd"><svg viewBox="0 0 904.8 2000" xmlns="http://www.w3.org/2000/svg" xmlns:xlink="http://www.w3.org/1999/xlink"><style>:root>svg{display:none}:root>svg:target{display:block}</style><svg viewBox="0 0 32 32" id="arrow-down" xmlns="http://www.w3.org/2000/svg"><defs><style>.acls-1{fill:#231f20}</style></defs><g data-name="Layer 2" id="aLayer_2"><path class="acls-1" d="M16.47 16.88L26.34 7a1 1 0 00-1.41-1.41l-9.06 9.06-8.8-8.8a1 1 0 00-1.41 0 1 1 0 000 1.42l9.61 9.61a.85.85 0 001.2 0z"/><path class="acls-1" d="M16.47 26.46l9.87-9.88a1 1 0 00-1.41-1.41l-9.06 9.06-8.8-8.8a1 1 0 00-1.41 0 1 1 0 000 1.41l9.61 9.62a.85.85 0 001.2 0z"/></g></svg><svg viewBox="0 0 100 100" id="arrow-left" xmlns="http://www.w3.org/2000/svg"><path d="M70.787 27.267v8.294c0 .571-.305 1.1-.8 1.385L49.776 48.615a1.6 1.6 0 000 2.771l20.212 11.669c.495.286.8.814.8 1.385v8.294a1.6 1.6 0 01-2.399 1.385L29.013 51.385a1.6 1.6 0 010-2.771l39.375-22.733a1.6 1.6 0 012.399 1.386z"/><path d="M69.987 63.055l-2.376-1.372c-.013.043-.023.09-.032.136l.409.236c.495.286.8.814.8 1.385v8.294c0 1.008-.894 1.693-1.803 1.575l1.404.81a1.6 1.6 0 002.399-1.385V64.44a1.6 1.6 0 00-.801-1.385zM49.776 48.615l20.212-11.669a1.6 1.6 0 00.8-1.385v-8.294c0-1.115-1.092-1.84-2.091-1.512.054.16.091.328.091.512v8.294c0 .571-.305 1.1-.8 1.385L47.776 47.615c-.078.052-.745.516-.8 1.385-.057.911.609 1.467.673 1.518l1.916 1.328a.747.747 0 01.019-.51.575.575 0 01.037-.07c-.896-.673-.853-2.07.155-2.651z"/><path d="M70.787 27.267v8.294c0 .571-.305 1.1-.8 1.385L49.776 48.615a1.6 1.6 0 000 2.771l20.212 11.669c.495.286.8.814.8 1.385v8.294a1.6 1.6 0 01-2.399 1.385L29.013 51.385a1.6 1.6 0 010-2.771l39.375-22.733a1.6 1.6 0 012.399 1.386z"/></svg><svg viewBox="0 0 100 100" id="arrow-right" xmlns="http://www.w3.org/2000/svg"><path d="M28.213 27.267v8.294c0 .571.305 1.1.8 1.385l20.212 11.669a1.6 1.6 0 010 2.771L29.013 63.055a1.6 1.6 0 00-.8 1.385v8.294a1.6 1.6 0 002.399 1.385l39.375-22.733a1.6 1.6 0 000-2.771L30.612 25.881a1.6 1.6 0 00-2.399 1.386z"/><path d="M69.987 48.615L30.612 25.881a1.56 1.56 0 00-.597-.19l37.972 21.923a1.6 1.6 0 010 2.771L28.612 73.119c-.1.058-.205.092-.308.126.308.914 1.401 1.398 2.308.874l39.375-22.733a1.6 1.6 0 000-2.771z"/><path d="M28.213 27.267v8.294c0 .571.305 1.1.8 1.385l20.212 11.669a1.6 1.6 0 010 2.771L29.013 63.055a1.6 1.6 0 00-.8 1.385v8.294a1.6 1.6 0 002.399 1.385l39.375-22.733a1.6 1.6 0 000-2.771L30.612 25.881a1.6 1.6 0 00-2.399 1.386z"/></svg><svg aria-hidden="true" data-prefix="fab" data-icon="css3-alt" class="dsvg-inline--fa dfa-css3-alt dfa-w-12" viewBox="0 0 384 512" id="css" xmlns="http://www.w3.org/2000/svg"><path d="M0 32l34.9 395.8L192 480l157.1-52.2L384 32H0zm313.1 80l-4.8 47.3L193 208.6l-.3.1h111.5l-12.8 146.6-98.2 28.7-98.8-29.2-6.4-73.9h48.9l3.2 38.3 52.6 13.3 54.7-15.4 3.7-61.6-166.3-.5v-.1l-.2.1-3.6-46.3L193.1 162l6.5-2.7H76.7L70.9 112h242.2z"/></svg><svg aria-hidden="true" data-prefix="fas" data-icon="at" class="esvg-inline--fa efa-at efa-w-16" viewBox="0 0 512 512" id="email" xmlns="http://www.w3.org/2000/svg"><path d="M256 8C118.941 8 8 118.919 8 256c0 137.059 110.919 248 248 248 48.154 0 95.342-14.14 135.408-40.223 12.005-7.815 14.625-24.288 5.552-35.372l-10.177-12.433c-7.671-9.371-21.179-11.667-31.373-5.129C325.92 429.757 291.314 440 256 440c-101.458 0-184-82.542-184-184S154.542 72 256 72c100.139 0 184 57.619 184 160 0 38.786-21.093 79.742-58.17 83.693-17.349-.454-16.91-12.857-13.476-30.024l23.433-121.11C394.653 149.75 383.308 136 368.225 136h-44.981a13.518 13.518 0 00-13.432 11.993l-.01.092c-14.697-17.901-40.448-21.775-59.971-21.775-74.58 0-137.831 62.234-137.831 151.46 0 65.303 36.785 105.87 96 105.87 26.984 0 57.369-15.637 74.991-38.333 9.522 34.104 40.613 34.103 70.71 34.103C462.609 379.41 504 307.798 504 232 504 95.653 394.023 8 256 8zm-21.68 304.43c-22.249 0-36.07-15.623-36.07-40.771 0-44.993 30.779-72.729 58.63-72.729 22.292 0 35.601 15.241 35.601 40.77 0 45.061-33.875 72.73-58.161 72.73z"/></svg><svg aria-hidden="true" data-prefix="fab" data-icon="figma" class="fsvg-inline--fa ffa-figma ffa-w-12" viewBox="0 0 384 512" id="figma" xmlns="http://www.w3.org/2000/svg"><path d="M277 170.7A85.35 85.35 0 00277 0H106.3a85.3 85.3 0 000 170.6 85.35 85.35 0 000 170.7 85.35 85.35 0 1085.3 85.4v-256zm0 0a85.3 85.3 0 1085.3 85.3 85.31 85.31 0 00-85.3-85.3z"/></svg><svg aria-hidden="true" data-prefix="fab" data-icon="github" class="gsvg-inline--fa gfa-github gfa-w-16" viewBox="0 0 496 512" id="git" xmlns="http://www.w3.org/2000/svg"><path d="M165.9 397.4c0 2-2.3 3.6-5.2 3.6-3.3.3-5.6-1.3-5.6-3.6 0-2 2.3-3.6 5.2-3.6 3-.3 5.6 1.3 5.6 3.6zm-31.1-4.5c-.7 2 1.3 4.3 4.3 4.9 2.6 1 5.6 0 6.2-2s-1.3-4.3-4.3-5.2c-2.6-.7-5.5.3-6.2 2.3zm44.2-1.7c-2.9.7-4.9 2.6-4.6 4.9.3 2 2.9 3.3 5.9 2.6 2.9-.7 4.9-2.6 4.6-4.6-.3-1.9-3-3.2-5.9-2.9zM244.8 8C106.1 8 0 113.3 0 252c0 110.9 69.8 205.8 169.5 239.2 12.8 2.3 17.3-5.6 17.3-12.1 0-6.2-.3-40.4-.3-61.4 0 0-70 15-84.7-29.8 0 0-11.4-29.1-27.8-36.6 0 0-22.9-15.7 1.6-15.4 0 0 24.9 2 38.6 25.8 21.9 38.6 58.6 27.5 72.9 20.9 2.3-16 8.8-27.1 16-33.7-55.9-6.2-112.3-14.3-112.3-110.5 0-27.5 7.6-41.3 23.6-58.9-2.6-6.5-11.1-33.3 2.6-67.9 20.9-6.5 69 27 69 27 20-5.6 41.5-8.5 62.8-8.5s42.8 2.9 62.8 8.5c0 0 48.1-33.6 69-27 13.7 34.7 5.2 61.4 2.6 67.9 16 17.7 25.8 31.5 25.8 58.9 0 96.5-58.9 104.2-114.8 110.5 9.2 7.9 17 22.9 17 46.4 0 33.7-.3 75.4-.3 83.6 0 6.5 4.6 14.4 17.3 12.1C428.2 457.8 496 362.9 496 252 496 113.3 383.5 8 244.8 8zM97.2 352.9c-1.3 1-1 3.3.7 5.2 1.6 1.6 3.9 2.3 5.2 1 1.3-1 1-3.3-.7-5.2-1.6-1.6-3.9-2.3-5.2-1zm-10.8-8.1c-.7 1.3.3 2.9 2.3 3.9 1.6 1 3.6.7 4.3-.7.7-1.3-.3-2.9-2.3-3.9-2-.6-3.6-.3-4.3.7zm32.4 35.6c-1.6 1.3-1 4.3 1.3 6.2 2.3 2.3 5.2 2.6 6.5 1 1.3-1.3.7-4.3-1.3-6.2-2.2-2.3-5.2-2.6-6.5-1zm-11.4-14.7c-1.6 1-1.6 3.6 0 5.9 1.6 2.3 4.3 3.3 5.6 2.3 1.6-1.3 1.6-3.9 0-6.2-1.4-2.3-4-3.3-5.6-2z"/></svg><svg viewBox="0 0 438.549 438.549" id="github" xmlns="http://www.w3.org/2000/svg"><path d="M409.132 114.573c-19.608-33.596-46.205-60.194-79.798-79.8-33.598-19.607-70.277-29.408-110.063-29.408-39.781 0-76.472 9.804-110.063 29.408-33.596 19.605-60.192 46.204-79.8 79.8C9.803 148.168 0 184.854 0 224.63c0 47.78 13.94 90.745 41.827 128.906 27.884 38.164 63.906 64.572 108.063 79.227 5.14.954 8.945.283 11.419-1.996 2.475-2.282 3.711-5.14 3.711-8.562 0-.571-.049-5.708-.144-15.417a2549.81 2549.81 0 01-.144-25.406l-6.567 1.136c-4.187.767-9.469 1.092-15.846 1-6.374-.089-12.991-.757-19.842-1.999-6.854-1.231-13.229-4.086-19.13-8.559-5.898-4.473-10.085-10.328-12.56-17.556l-2.855-6.57c-1.903-4.374-4.899-9.233-8.992-14.559-4.093-5.331-8.232-8.945-12.419-10.848l-1.999-1.431c-1.332-.951-2.568-2.098-3.711-3.429-1.142-1.331-1.997-2.663-2.568-3.997-.572-1.335-.098-2.43 1.427-3.289 1.525-.859 4.281-1.276 8.28-1.276l5.708.853c3.807.763 8.516 3.042 14.133 6.851 5.614 3.806 10.229 8.754 13.846 14.842 4.38 7.806 9.657 13.754 15.846 17.847 6.184 4.093 12.419 6.136 18.699 6.136 6.28 0 11.704-.476 16.274-1.423 4.565-.952 8.848-2.383 12.847-4.285 1.713-12.758 6.377-22.559 13.988-29.41-10.848-1.14-20.601-2.857-29.264-5.14-8.658-2.286-17.605-5.996-26.835-11.14-9.235-5.137-16.896-11.516-22.985-19.126-6.09-7.614-11.088-17.61-14.987-29.979-3.901-12.374-5.852-26.648-5.852-42.826 0-23.035 7.52-42.637 22.557-58.817-7.044-17.318-6.379-36.732 1.997-58.24 5.52-1.715 13.706-.428 24.554 3.853 10.85 4.283 18.794 7.952 23.84 10.994 5.046 3.041 9.089 5.618 12.135 7.708 17.705-4.947 35.976-7.421 54.818-7.421s37.117 2.474 54.823 7.421l10.849-6.849c7.419-4.57 16.18-8.758 26.262-12.565 10.088-3.805 17.802-4.853 23.134-3.138 8.562 21.509 9.325 40.922 2.279 58.24 15.036 16.18 22.559 35.787 22.559 58.817 0 16.178-1.958 30.497-5.853 42.966-3.9 12.471-8.941 22.457-15.125 29.979-6.191 7.521-13.901 13.85-23.131 18.986-9.232 5.14-18.182 8.85-26.84 11.136-8.662 2.286-18.415 4.004-29.263 5.146 9.894 8.562 14.842 22.077 14.842 40.539v60.237c0 3.422 1.19 6.279 3.572 8.562 2.379 2.279 6.136 2.95 11.276 1.995 44.163-14.653 80.185-41.062 108.068-79.226 27.88-38.161 41.825-81.126 41.825-128.906-.01-39.771-9.818-76.454-29.414-110.049z"/></svg><svg preserveAspectRatio="xMinYMin meet" viewBox="0 0 256 566" id="gulp" xmlns="http://www.w3.org/2000/svg"><path d="M197.28 548.749l5.427-90.43 14.985-25.58s-34.106 13.952-91.205 13.952c-57.1 0-90.689-13.694-90.689-13.694l16.794 27.904 5.941 87.848c0 9.418 31.059 17.052 69.374 17.052 38.313 0 69.373-7.634 69.373-17.052m-17.119-422.295l11.391-45.025 63.081-66.376L238.007.892l-66.784 70.707-13.226 53.793a886.14 886.14 0 00-29.873-.497c-70.336 0-127.355 8.016-127.355 17.902 0 9.887 57.019 17.902 127.355 17.902 70.335 0 127.353-8.015 127.353-17.902 0-7.28-30.924-13.546-75.316-16.343"/><path d="M173.535 151.669s-2.467.553-9.724.584c-7.259.03-12.413-.047-14.466-1.917-.552-.502-.854-1.499-.851-2.174.006-1.285.918-2.042 2.08-2.516l1.099 1.724c-.478.165-.751.36-.752.568-.004.976 7.422 1.644 13.102 1.572 5.681-.07 12.545-.538 12.551-1.5 0-.291-.519-.565-1.422-.781l1.094-1.712c1.472.457 2.757 1.34 2.754 2.868-.014 2.598-3.32 2.993-5.465 3.284M254.509 15.184c1.586-1.832-.821-6.518-5.376-10.465C244.576.774 239.596-.94 238.007.892c-1.587 1.832.821 6.518 5.378 10.463 4.555 3.946 9.537 5.662 11.124 3.829m-60.263 312.681c-1.495-14.384 31.462-35.216 23.004-35.883-18.208 1.041-27.27 21.338-36.431 42.596-3.357 7.791-14.844 41.013-22.378 36.923-7.532-4.088 9.765-31.407 14.613-47.631-5.594 4.102-26.109 20.041-31.396 5.114-8.5 7.219-26.663 11.13-24.614-7.833-4.522 8.01-14.671 19.193-26.853 14.546-15.998-6.101 9.27-57.062 15.553-54.491 6.284 2.57-1.268 14.179-3.246 18.687-4.35 9.921-9.375 22.393-6.018 24.946 5.751 4.374 21.401-16.547 21.749-17.007 2.927-3.867 11.266-29.166 17.987-26.261 6.721 2.905-16.764 36.308-7.983 42.937 1.771 1.338 9.017-.825 13.425-5.594 2.852-3.085 1.871-9.918 11.378-32.59 9.507-22.671 17.98-50.905 24.5-48.754 6.52 2.15 1.146 16.641-1.193 22.043-10.976 25.354-29.956 67.241-21.005 64.07 8.951-3.17 13.612-3.356 22.377-13.613 8.765-10.257 8.361-27.152 14.203-26.793 5.844.36 4.863 5.777 3.446 9.902 5.75-6.58 27.256-20.438 32.448-6.713 6.15 16.249-30.769 39.72-21.564 38.523 8.975-1.167 23.515-10.376 29.723-18.749l17.088-153.626s-17.195 14.23-126.589 14.23c-109.395 0-124.811-13.934-124.811-13.934l14.548 140.224c7.722-21.947 26.059-66.339 54.963-64.849 13.148.678 30.7 25.995 15.665 26.853-6.364.362-7.01-12.637-14.546-14.546-5.438-1.378-13.009 3.043-17.902 7.833-9.758 9.55-30.745 47.229-27.972 66.014 3.533 23.949 33.048-8.322 38.042-17.903 3.517-6.749 5.893-26.745 13.585-24.647 7.693 2.098-.671 22.734-6.247 40.979-6.264 20.487-9.557 42.098-17.408 39.612-7.852-2.484 4.938-28.932 4.475-33.566-7.38 6.809-20.976 24.047-38.37 15.515l9.035 87.078s24.013 18.973 96.35 18.973c72.337 0 97.239-18.677 97.239-18.677l11.219-100.857c-9.179 8.938-38.229 24.81-40.089 6.919"/></svg><svg aria-hidden="true" data-prefix="fab" data-icon="html5" class="jsvg-inline--fa jfa-html5 jfa-w-12" viewBox="0 0 384 512" id="html" xmlns="http://www.w3.org/2000/svg"><path d="M0 32l34.9 395.8L191.5 480l157.6-52.2L384 32H0zm308.2 127.9H124.4l4.1 49.4h175.6l-13.6 148.4-97.9 27v.3h-1.1l-98.7-27.3-6-75.8h47.7L138 320l53.5 14.5 53.7-14.5 6-62.2H84.3L71.5 112.2h241.1l-4.4 47.7z"/></svg><svg aria-hidden="true" data-prefix="fab" data-icon="instagram" class="ksvg-inline--fa kfa-instagram kfa-w-14" viewBox="0 0 448 512" id="instagram" xmlns="http://www.w3.org/2000/svg"><path d="M224.1 141c-63.6 0-114.9 51.3-114.9 114.9s51.3 114.9 114.9 114.9S339 319.5 339 255.9 287.7 141 224.1 141zm0 189.6c-41.1 0-74.7-33.5-74.7-74.7s33.5-74.7 74.7-74.7 74.7 33.5 74.7 74.7-33.6 74.7-74.7 74.7zm146.4-194.3c0 14.9-12 26.8-26.8 26.8-14.9 0-26.8-12-26.8-26.8s12-26.8 26.8-26.8 26.8 12 26.8 26.8zm76.1 27.2c-1.7-35.9-9.9-67.7-36.2-93.9-26.2-26.2-58-34.4-93.9-36.2-37-2.1-147.9-2.1-184.9 0-35.8 1.7-67.6 9.9-93.9 36.1s-34.4 58-36.2 93.9c-2.1 37-2.1 147.9 0 184.9 1.7 35.9 9.9 67.7 36.2 93.9s58 34.4 93.9 36.2c37 2.1 147.9 2.1 184.9 0 35.9-1.7 67.7-9.9 93.9-36.2 26.2-26.2 34.4-58 36.2-93.9 2.1-37 2.1-147.8 0-184.8zM398.8 388c-7.8 19.6-22.9 34.7-42.6 42.6-29.5 11.7-99.5 9-132.1 9s-102.7 2.6-132.1-9c-19.6-7.8-34.7-22.9-42.6-42.6-11.7-29.5-9-99.5-9-132.1s-2.6-102.7 9-132.1c7.8-19.6 22.9-34.7 42.6-42.6 29.5-11.7 99.5-9 132.1-9s102.7-2.6 132.1 9c19.6 7.8 34.7 22.9 42.6 42.6 11.7 29.5 9 99.5 9 132.1s2.7 102.7-9 132.1z"/></svg><svg viewBox="0 0 128 128" id="jquery" xmlns="http://www.w3.org/2000/svg"><path d="M65.283 106.928c-.828-.187-1.633-.446-2.441-.685l-.609-.185a72.498 72.498 0 01-2.352-.765l-.323-.117a71.149 71.149 0 01-2.074-.769l-.582-.229c-.752-.297-1.5-.607-2.238-.931l-.447-.198a92.857 92.857 0 01-1.889-.879l-.546-.262c-.491-.239-.977-.493-1.461-.743-.324-.171-.654-.332-.975-.51a57.368 57.368 0 01-1.751-.982l-.591-.33a79.8 79.8 0 01-2.28-1.397l-.615-.41a57.785 57.785 0 01-1.623-1.079l-.523-.367a93.376 93.376 0 01-1.534-1.109l-.679-.514a67.061 67.061 0 01-1.384-1.082l-.617-.495a85.378 85.378 0 01-1.724-1.453l-.188-.159a81.186 81.186 0 01-1.812-1.647l-.51-.491c-.441-.42-.875-.843-1.302-1.277l-.51-.509a72.65 72.65 0 01-1.599-1.69l-.078-.084a65.735 65.735 0 01-1.621-1.844l-.424-.504a67.378 67.378 0 01-1.167-1.442l-.427-.532a78.406 78.406 0 01-1.347-1.794C12.89 62.89 8.524 40.032 18.236 21.26L9.625 32.181C-1.404 48.032-.031 68.657 8.394 85.501c.2.404.411.801.617 1.198l.395.759.245.437.439.786c.262.461.53.92.805 1.379l.458.756c.304.491.615.976.934 1.46l.398.614c.438.655.888 1.309 1.352 1.951l.039.05.228.308c.4.553.814 1.099 1.232 1.639l.463.59c.373.469.752.935 1.139 1.399l.435.52a75.27 75.27 0 001.586 1.812l.032.033.062.068a77.952 77.952 0 001.612 1.699l.517.521c.423.426.853.845 1.287 1.262l.526.5c.58.547 1.166 1.083 1.764 1.607l.028.022.307.262c.526.456 1.062.909 1.603 1.353l.664.529c.441.354.887.702 1.336 1.044l.714.543c.495.365.995.724 1.499 1.075l.546.387.15.107c.478.329.967.646 1.456.963l.63.42c.749.474 1.51.943 2.278 1.396l.63.355a74.53 74.53 0 001.711.959c.312.168.632.327.946.488.407.213.811.429 1.225.636l.283.137.501.242c.641.306 1.287.607 1.94.897l.41.184a66.92 66.92 0 002.263.941l.551.217c.704.271 1.418.539 2.135.791l.268.093c.786.275 1.581.53 2.381.779l.575.172c.814.245 1.618.538 2.458.693 53.339 9.727 68.833-32.053 68.833-32.053-13.014 16.954-36.112 21.426-57.997 16.447zM46.069 63.697c1.195 1.713 2.52 3.751 4.105 5.127a48.111 48.111 0 001.79 1.858l.472.465a52.581 52.581 0 001.828 1.698l.074.064.018.018a55.268 55.268 0 002.135 1.767l.484.378a54.08 54.08 0 002.233 1.631l.065.049c.336.232.679.448 1.02.672l.482.319c.544.349 1.096.689 1.656 1.015l.234.136c.483.278.973.552 1.463.818l.521.271c.339.177.678.358 1.024.53l.155.07c.702.346 1.411.68 2.136.995l.472.194a50.02 50.02 0 001.75.71l.75.275c.533.198 1.068.378 1.608.559l.727.233c.767.238 1.525.539 2.324.672 41.183 6.823 50.69-24.886 50.69-24.886-8.57 12.343-25.168 18.233-42.879 13.635a50.376 50.376 0 01-2.333-.674l-.7-.227a46.162 46.162 0 01-1.632-.562l-.736-.274a57.432 57.432 0 01-1.756-.708l-.473-.2a47.728 47.728 0 01-2.148-.999c-.364-.177-.721-.364-1.078-.548l-.622-.32a44.502 44.502 0 01-1.363-.77l-.326-.185a47.802 47.802 0 01-1.65-1.008l-.498-.332a65.856 65.856 0 01-1.069-.707 58.235 58.235 0 01-2.226-1.628l-.501-.395c-7.752-6.12-13.897-14.486-16.819-23.971-3.062-9.836-2.401-20.878 2.903-29.84l-6.517 9.2c-7.977 11.478-7.543 26.844-1.321 38.983a50.37 50.37 0 003.528 5.892zm43.407-14.199c.339.125.678.237 1.022.354l.451.143c.484.152.966.329 1.467.424 22.739 4.394 28.908-11.669 30.549-14.034-5.403 7.779-14.482 9.646-25.623 6.942-.88-.213-1.848-.531-2.696-.832a33.242 33.242 0 01-3.201-1.329 33.175 33.175 0 01-5.612-3.424c-9.969-7.565-16.162-21.994-9.657-33.745l-3.52 4.851c-4.702 6.92-5.164 15.514-1.901 23.156 3.441 8.112 10.492 14.475 18.721 17.494z"/></svg><svg aria-hidden="true" data-prefix="fab" data-icon="js-square" class="msvg-inline--fa mfa-js-square mfa-w-14" viewBox="0 0 448 512" id="js" xmlns="http://www.w3.org/2000/svg"><path d="M400 32H48C21.5 32 0 53.5 0 80v352c0 26.5 21.5 48 48 48h352c26.5 0 48-21.5 48-48V80c0-26.5-21.5-48-48-48zM243.8 381.4c0 43.6-25.6 63.5-62.9 63.5-33.7 0-53.2-17.4-63.2-38.5l34.3-20.7c6.6 11.7 12.6 21.6 27.1 21.6 13.8 0 22.6-5.4 22.6-26.5V237.7h42.1v143.7zm99.6 63.5c-39.1 0-64.4-18.6-76.7-43l34.3-19.8c9 14.7 20.8 25.6 41.5 25.6 17.4 0 28.6-8.7 28.6-20.8 0-14.4-11.4-19.5-30.7-28l-10.5-4.5c-30.4-12.9-50.5-29.2-50.5-63.5 0-31.6 24.1-55.6 61.6-55.6 26.8 0 46 9.3 59.8 33.7L368 290c-7.2-12.9-15-18-27.1-18-12.3 0-20.1 7.8-20.1 18 0 12.6 7.8 17.7 25.9 25.6l10.5 4.5c35.8 15.3 55.9 31 55.9 66.2 0 37.8-29.8 58.6-69.7 58.6z"/></svg><svg aria-hidden="true" data-prefix="fas" data-icon="phone" class="nsvg-inline--fa nfa-phone nfa-w-16" viewBox="0 0 512 512" id="phone" xmlns="http://www.w3.org/2000/svg"><path d="M493.4 24.6l-104-24c-11.3-2.6-22.9 3.3-27.5 13.9l-48 112c-4.2 9.8-1.4 21.3 6.9 28l60.6 49.6c-36 76.7-98.9 140.5-177.2 177.2l-49.6-60.6c-6.8-8.3-18.2-11.1-28-6.9l-112 48C3.9 366.5-2 378.1.6 389.4l24 104C27.1 504.2 36.7 512 48 512c256.1 0 464-207.5 464-464 0-11.2-7.7-20.9-18.6-23.4z"/></svg><svg aria-hidden="true" data-prefix="fas" data-icon="envelope-open-text" class="osvg-inline--fa ofa-envelope-open-text ofa-w-16" viewBox="0 0 512 512" id="post" xmlns="http://www.w3.org/2000/svg"><path d="M176 216h160c8.84 0 16-7.16 16-16v-16c0-8.84-7.16-16-16-16H176c-8.84 0-16 7.16-16 16v16c0 8.84 7.16 16 16 16zm-16 80c0 8.84 7.16 16 16 16h160c8.84 0 16-7.16 16-16v-16c0-8.84-7.16-16-16-16H176c-8.84 0-16 7.16-16 16v16zm96 121.13c-16.42 0-32.84-5.06-46.86-15.19L0 250.86V464c0 26.51 21.49 48 48 48h416c26.51 0 48-21.49 48-48V250.86L302.86 401.94c-14.02 10.12-30.44 15.19-46.86 15.19zm237.61-254.18c-8.85-6.94-17.24-13.47-29.61-22.81V96c0-26.51-21.49-48-48-48h-77.55c-3.04-2.2-5.87-4.26-9.04-6.56C312.6 29.17 279.2-.35 256 0c-23.2-.35-56.59 29.17-73.41 41.44-3.17 2.3-6 4.36-9.04 6.56H96c-26.51 0-48 21.49-48 48v44.14c-12.37 9.33-20.76 15.87-29.61 22.81A47.995 47.995 0 000 200.72v10.65l96 69.35V96h320v184.72l96-69.35v-10.65c0-14.74-6.78-28.67-18.39-37.77z"/></svg><svg aria-hidden="true" data-prefix="fab" data-icon="sass" class="psvg-inline--fa pfa-sass pfa-w-20" viewBox="0 0 640 512" id="sass" xmlns="http://www.w3.org/2000/svg"><path d="M301.84 378.92c-.3.6-.6 1.08 0 0zm249.13-87a131.16 131.16 0 00-58 13.5c-5.9-11.9-12-22.3-13-30.1-1.2-9.1-2.5-14.5-1.1-25.3s7.7-26.1 7.6-27.2-1.4-6.6-14.3-6.7-24 2.5-25.29 5.9a122.83 122.83 0 00-5.3 19.1c-2.3 11.7-25.79 53.5-39.09 75.3-4.4-8.5-8.1-16-8.9-22-1.2-9.1-2.5-14.5-1.1-25.3s7.7-26.1 7.6-27.2-1.4-6.6-14.29-6.7-24 2.5-25.3 5.9-2.7 11.4-5.3 19.1-33.89 77.3-42.08 95.4c-4.2 9.2-7.8 16.6-10.4 21.6-.4.8-.7 1.3-.9 1.7.3-.5.5-1 .5-.8-2.2 4.3-3.5 6.7-3.5 6.7v.1c-1.7 3.2-3.6 6.1-4.5 6.1-.6 0-1.9-8.4.3-19.9 4.7-24.2 15.8-61.8 15.7-63.1-.1-.7 2.1-7.2-7.3-10.7-9.1-3.3-12.4 2.2-13.2 2.2s-1.4 2-1.4 2 10.1-42.4-19.39-42.4c-18.4 0-44 20.2-56.58 38.5-7.9 4.3-25 13.6-43 23.5-6.9 3.8-14 7.7-20.7 11.4-.5-.5-.9-1-1.4-1.5-35.79-38.2-101.87-65.2-99.07-116.5 1-18.7 7.5-67.8 127.07-127.4 98-48.8 176.35-35.4 189.84-5.6 19.4 42.5-41.89 121.6-143.66 133-38.79 4.3-59.18-10.7-64.28-16.3-5.3-5.9-6.1-6.2-8.1-5.1-3.3 1.8-1.2 7 0 10.1 3 7.9 15.5 21.9 36.79 28.9 18.7 6.1 64.18 9.5 119.17-11.8 61.78-23.8 109.87-90.1 95.77-145.6C386.52 18.32 293-.18 204.57 31.22c-52.69 18.7-109.67 48.1-150.66 86.4-48.69 45.6-56.48 85.3-53.28 101.9 11.39 58.9 92.57 97.3 125.06 125.7-1.6.9-3.1 1.7-4.5 2.5-16.29 8.1-78.18 40.5-93.67 74.7-17.5 38.8 2.9 66.6 16.29 70.4 41.79 11.6 84.58-9.3 107.57-43.6s20.2-79.1 9.6-99.5c-.1-.3-.3-.5-.4-.8 4.2-2.5 8.5-5 12.8-7.5 8.29-4.9 16.39-9.4 23.49-13.3-4 10.8-6.9 23.8-8.4 42.6-1.8 22 7.3 50.5 19.1 61.7 5.2 4.9 11.49 5 15.39 5 13.8 0 20-11.4 26.89-25 8.5-16.6 16-35.9 16-35.9s-9.4 52.2 16.3 52.2c9.39 0 18.79-12.1 23-18.3v.1s.2-.4.7-1.2c1-1.5 1.5-2.4 1.5-2.4v-.3c3.8-6.5 12.1-21.4 24.59-46 16.2-31.8 31.69-71.5 31.69-71.5a201.24 201.24 0 006.2 25.8c2.8 9.5 8.7 19.9 13.4 30-3.8 5.2-6.1 8.2-6.1 8.2a.31.31 0 00.1.2c-3 4-6.4 8.3-9.9 12.5-12.79 15.2-28 32.6-30 37.6-2.4 5.9-1.8 10.3 2.8 13.7 3.4 2.6 9.4 3 15.69 2.5 11.5-.8 19.6-3.6 23.5-5.4a82.2 82.2 0 0020.19-10.6c12.5-9.2 20.1-22.4 19.4-39.8-.4-9.6-3.5-19.2-7.3-28.2 1.1-1.6 2.3-3.3 3.4-5C434.8 301.72 450.1 270 450.1 270a201.24 201.24 0 006.2 25.8c2.4 8.1 7.09 17 11.39 25.7-18.59 15.1-30.09 32.6-34.09 44.1-7.4 21.3-1.6 30.9 9.3 33.1 4.9 1 11.9-1.3 17.1-3.5a79.46 79.46 0 0021.59-11.1c12.5-9.2 24.59-22.1 23.79-39.6-.3-7.9-2.5-15.8-5.4-23.4 15.7-6.6 36.09-10.2 62.09-7.2 55.68 6.5 66.58 41.3 64.48 55.8s-13.8 22.6-17.7 25-5.1 3.3-4.8 5.1c.5 2.6 2.3 2.5 5.6 1.9 4.6-.8 29.19-11.8 30.29-38.7 1.6-34-31.09-71.4-89-71.1zm-429.18 144.7c-18.39 20.1-44.19 27.7-55.28 21.3C54.61 451 59.31 421.42 82 400c13.8-13 31.59-25 43.39-32.4 2.7-1.6 6.6-4 11.4-6.9.8-.5 1.2-.7 1.2-.7.9-.6 1.9-1.1 2.9-1.7 8.29 30.4.3 57.2-19.1 78.3zm134.36-91.4c-6.4 15.7-19.89 55.7-28.09 53.6-7-1.8-11.3-32.3-1.4-62.3 5-15.1 15.6-33.1 21.9-40.1 10.09-11.3 21.19-14.9 23.79-10.4 3.5 5.9-12.2 49.4-16.2 59.2zm111 53c-2.7 1.4-5.2 2.3-6.4 1.6-.9-.5 1.1-2.4 1.1-2.4s13.9-14.9 19.4-21.7c3.2-4 6.9-8.7 10.89-13.9 0 .5.1 1 .1 1.6-.13 17.9-17.32 30-25.12 34.8zm85.58-19.5c-2-1.4-1.7-6.1 5-20.7 2.6-5.7 8.59-15.3 19-24.5a36.18 36.18 0 011.9 10.8c-.1 22.5-16.2 30.9-25.89 34.4z"/></svg><svg aria-hidden="true" data-prefix="fab" data-icon="skype" class="qsvg-inline--fa qfa-skype qfa-w-14" viewBox="0 0 448 512" id="skype" xmlns="http://www.w3.org/2000/svg"><path d="M424.7 299.8c2.9-14 4.7-28.9 4.7-43.8 0-113.5-91.9-205.3-205.3-205.3-14.9 0-29.7 1.7-43.8 4.7C161.3 40.7 137.7 32 112 32 50.2 32 0 82.2 0 144c0 25.7 8.7 49.3 23.3 68.2-2.9 14-4.7 28.9-4.7 43.8 0 113.5 91.9 205.3 205.3 205.3 14.9 0 29.7-1.7 43.8-4.7 19 14.6 42.6 23.3 68.2 23.3 61.8 0 112-50.2 112-112 .1-25.6-8.6-49.2-23.2-68.1zm-194.6 91.5c-65.6 0-120.5-29.2-120.5-65 0-16 9-30.6 29.5-30.6 31.2 0 34.1 44.9 88.1 44.9 25.7 0 42.3-11.4 42.3-26.3 0-18.7-16-21.6-42-28-62.5-15.4-117.8-22-117.8-87.2 0-59.2 58.6-81.1 109.1-81.1 55.1 0 110.8 21.9 110.8 55.4 0 16.9-11.4 31.8-30.3 31.8-28.3 0-29.2-33.5-75-33.5-25.7 0-42 7-42 22.5 0 19.8 20.8 21.8 69.1 33 41.4 9.3 90.7 26.8 90.7 77.6 0 59.1-57.1 86.5-112 86.5z"/></svg><svg aria-hidden="true" data-prefix="fab" data-icon="telegram-plane" class="rsvg-inline--fa rfa-telegram-plane rfa-w-14" viewBox="0 0 448 512" id="telegram" xmlns="http://www.w3.org/2000/svg"><path d="M446.7 98.6l-67.6 318.8c-5.1 22.5-18.4 28.1-37.3 17.5l-103-75.9-49.7 47.8c-5.5 5.5-10.1 10.1-20.7 10.1l7.4-104.9 190.9-172.5c8.3-7.4-1.8-11.5-12.9-4.1L117.8 284 16.2 252.2c-22.1-6.9-22.5-22.1 4.6-32.7L418.2 66.4c18.4-6.9 34.5 4.1 28.5 32.2z"/></svg><svg aria-hidden="true" data-prefix="fab" data-icon="viber" class="ssvg-inline--fa sfa-viber sfa-w-16" viewBox="0 0 512 512" id="viber" xmlns="http://www.w3.org/2000/svg"><path d="M444 49.9C431.3 38.2 379.9.9 265.3.4c0 0-135.1-8.1-200.9 52.3C27.8 89.3 14.9 143 13.5 209.5c-1.4 66.5-3.1 191.1 117 224.9h.1l-.1 51.6s-.8 20.9 13 25.1c16.6 5.2 26.4-10.7 42.3-27.8 8.7-9.4 20.7-23.2 29.8-33.7 82.2 6.9 145.3-8.9 152.5-11.2 16.6-5.4 110.5-17.4 125.7-142 15.8-128.6-7.6-209.8-49.8-246.5zM457.9 287c-12.9 104-89 110.6-103 115.1-6 1.9-61.5 15.7-131.2 11.2 0 0-52 62.7-68.2 79-5.3 5.3-11.1 4.8-11-5.7 0-6.9.4-85.7.4-85.7-.1 0-.1 0 0 0-101.8-28.2-95.8-134.3-94.7-189.8 1.1-55.5 11.6-101 42.6-131.6 55.7-50.5 170.4-43 170.4-43 96.9.4 143.3 29.6 154.1 39.4 35.7 30.6 53.9 103.8 40.6 211.1zm-139-80.8c.4 8.6-12.5 9.2-12.9.6-1.1-22-11.4-32.7-32.6-33.9-8.6-.5-7.8-13.4.7-12.9 27.9 1.5 43.4 17.5 44.8 46.2zm20.3 11.3c1-42.4-25.5-75.6-75.8-79.3-8.5-.6-7.6-13.5.9-12.9 58 4.2 88.9 44.1 87.8 92.5-.1 8.6-13.1 8.2-12.9-.3zm47 13.4c.1 8.6-12.9 8.7-12.9.1-.6-81.5-54.9-125.9-120.8-126.4-8.5-.1-8.5-12.9 0-12.9 73.7.5 133 51.4 133.7 139.2zM374.9 329v.2c-10.8 19-31 40-51.8 33.3l-.2-.3c-21.1-5.9-70.8-31.5-102.2-56.5-16.2-12.8-31-27.9-42.4-42.4-10.3-12.9-20.7-28.2-30.8-46.6-21.3-38.5-26-55.7-26-55.7-6.7-20.8 14.2-41 33.3-51.8h.2c9.2-4.8 18-3.2 23.9 3.9 0 0 12.4 14.8 17.7 22.1 5 6.8 11.7 17.7 15.2 23.8 6.1 10.9 2.3 22-3.7 26.6l-12 9.6c-6.1 4.9-5.3 14-5.3 14s17.8 67.3 84.3 84.3c0 0 9.1.8 14-5.3l9.6-12c4.6-6 15.7-9.8 26.6-3.7 14.7 8.3 33.4 21.2 45.8 32.9 7 5.7 8.6 14.4 3.8 23.6z"/></svg><svg aria-hidden="true" data-prefix="fab" data-icon="vk" class="tsvg-inline--fa tfa-vk tfa-w-18" viewBox="0 0 576 512" id="vk" xmlns="http://www.w3.org/2000/svg"><path d="M545 117.7c3.7-12.5 0-21.7-17.8-21.7h-58.9c-15 0-21.9 7.9-25.6 16.7 0 0-30 73.1-72.4 120.5-13.7 13.7-20 18.1-27.5 18.1-3.7 0-9.4-4.4-9.4-16.9V117.7c0-15-4.2-21.7-16.6-21.7h-92.6c-9.4 0-15 7-15 13.5 0 14.2 21.2 17.5 23.4 57.5v86.8c0 19-3.4 22.5-10.9 22.5-20 0-68.6-73.4-97.4-157.4-5.8-16.3-11.5-22.9-26.6-22.9H38.8c-16.8 0-20.2 7.9-20.2 16.7 0 15.6 20 93.1 93.1 195.5C160.4 378.1 229 416 291.4 416c37.5 0 42.1-8.4 42.1-22.9 0-66.8-3.4-73.1 15.4-73.1 8.7 0 23.7 4.4 58.7 38.1 40 40 46.6 57.9 69 57.9h58.9c16.8 0 25.3-8.4 20.4-25-11.2-34.9-86.9-106.7-90.3-111.5-8.7-11.2-6.2-16.2 0-26.2.1-.1 72-101.3 79.4-135.6z"/></svg><svg aria-hidden="true" data-prefix="fab" data-icon="whatsapp" class="usvg-inline--fa ufa-whatsapp ufa-w-14" viewBox="0 0 448 512" id="whatsapp" xmlns="http://www.w3.org/2000/svg"><path d="M380.9 97.1C339 55.1 283.2 32 223.9 32c-122.4 0-222 99.6-222 222 0 39.1 10.2 77.3 29.6 111L0 480l117.7-30.9c32.4 17.7 68.9 27 106.1 27h.1c122.3 0 224.1-99.6 224.1-222 0-59.3-25.2-115-67.1-157zm-157 341.6c-33.2 0-65.7-8.9-94-25.7l-6.7-4-69.8 18.3L72 359.2l-4.4-7c-18.5-29.4-28.2-63.3-28.2-98.2 0-101.7 82.8-184.5 184.6-184.5 49.3 0 95.6 19.2 130.4 54.1 34.8 34.9 56.2 81.2 56.1 130.5 0 101.8-84.9 184.6-186.6 184.6zm101.2-138.2c-5.5-2.8-32.8-16.2-37.9-18-5.1-1.9-8.8-2.8-12.5 2.8-3.7 5.6-14.3 18-17.6 21.8-3.2 3.7-6.5 4.2-12 1.4-32.6-16.3-54-29.1-75.5-66-5.7-9.8 5.7-9.1 16.3-30.3 1.8-3.7.9-6.9-.5-9.7-1.4-2.8-12.5-30.1-17.1-41.2-4.5-10.8-9.1-9.3-12.5-9.5-3.2-.2-6.9-.2-10.6-.2-3.7 0-9.7 1.4-14.8 6.9-5.1 5.6-19.4 19-19.4 46.3 0 27.3 19.9 53.7 22.6 57.4 2.8 3.7 39.1 59.7 94.8 83.8 35.2 15.2 49 16.5 66.6 13.9 10.7-1.6 32.8-13.4 37.4-26.4 4.6-13 4.6-24.1 3.2-26.4-1.3-2.5-5-3.9-10.5-6.6z"/></svg></svg>